<svg width="27" height="18" viewBox="0 0 27 18" fill="none" xmlns="http://www.w3.org/2000/svg">
<path d="M25.0943 4.28V2C25.0943 0.9 23.8829 0 22.4022 0H3.5573C2.06317 0 0.865173 0.9 0.865173 2V16C0.865173 17.1 2.06317 18 3.5573 18H22.4022C23.8829 18 25.0943 17.1 25.0943 16V13.72C25.8885 13.37 26.4404 12.74 26.4404 12V6C26.4404 5.26 25.8885 4.63 25.0943 4.28ZM23.7482 6V12H14.3258V6H23.7482ZM3.5573 16V2H22.4022V4H14.3258C12.8451 4 11.6337 4.9 11.6337 6V12C11.6337 13.1 12.8451 14 14.3258 14H22.4022V16H3.5573Z" fill="#201E1B"/>
<path d="M18.364 10.5C19.4791 10.5 20.3831 9.82843 20.3831 9C20.3831 8.17157 19.4791 7.5 18.364 7.5C17.2489 7.5 16.3449 8.17157 16.3449 9C16.3449 9.82843 17.2489 10.5 18.364 10.5Z" fill="#201E1B"/>
</svg>
